<svg xmlns="http://www.w3.org/2000/svg" width="40" height="40" viewBox="0 0 40 40">
    <g>
        <g fill="#fff" stroke-linecap="round" stroke-linejoin="round">
            <path d="M669.425 129.541c-.1 0-.213-.064-.304-.17-.151-.177-.213-.432-.17-.7l.885-5.525.088-.549-.42-.364c-1.899-1.648-3.394-3.595-4.442-5.785-1.086-2.266-1.636-4.682-1.636-7.182 0-4.722 1.968-9.165 5.541-12.51 1.745-1.634 3.778-2.917 6.042-3.814 2.348-.93 4.844-1.401 7.417-1.401 2.573 0 5.069.471 7.417 1.401 2.264.897 4.297 2.18 6.042 3.814 3.573 3.345 5.541 7.788 5.541 12.51 0 4.723-1.968 9.166-5.541 12.511-1.745 1.634-3.778 2.917-6.042 3.814-2.348.93-4.844 1.4-7.417 1.4-2.16 0-4.317-.355-6.412-1.058l-.446-.15-.399.249-5.566 3.45c-.063.04-.121.059-.178.059z" transform="translate(-662.426 -90.541)"/>
            <path fill="#333" d="M682.426 92.541c-4.833 0-9.37 1.756-12.775 4.944-3.37 3.155-5.225 7.339-5.225 11.781 0 2.349.517 4.62 1.538 6.75.989 2.066 2.4 3.904 4.196 5.461.522.454.773 1.145.664 1.828l-.756 4.713 4.574-2.836c.32-.199.686-.3 1.054-.3.214 0 .429.034.636.103 1.992.668 4.042 1.007 6.094 1.007 4.833 0 9.37-1.756 12.775-4.945 3.37-3.154 5.225-7.338 5.225-11.78 0-4.443-1.856-8.627-5.225-11.782-3.405-3.188-7.942-4.944-12.775-4.944m0-2c11.046 0 20 8.384 20 18.725 0 10.342-8.954 18.726-20 18.726-2.365 0-4.624-.404-6.73-1.11l-5.566 3.45c-.232.144-.472.209-.705.209-.872 0-1.64-.912-1.462-2.027l.886-5.526c-3.941-3.42-6.423-8.294-6.423-13.722 0-10.341 8.954-18.725 20-18.725z" transform="translate(-662.426 -90.541)"/>
        </g>
        <text fill="#adc4f8" font-family="BMJUA, BM JUA_TTF" font-size="11.339px" transform="translate(-662.426 -90.541) translate(669.598 113.134)">
            <tspan x="0" y="0">TALK</tspan>
        </text>
    </g>
</svg>
