<svg xmlns="http://www.w3.org/2000/svg" width="40" height="40" viewBox="0 0 40 40">
    <defs>
        <style>
            .cls-3{fill-rule:evenodd;fill:#adc4f8}
        </style>
    </defs>
    <g id="icon_quick_talk" transform="translate(-660.721 -42.989)">
        <g id="패스_85" fill="#fff" fill-rule="evenodd" stroke="none" stroke-linecap="round" stroke-linejoin="round">
            <path d="M673.821 81.989c-.144 0-.33-.064-.432-.237l-.009-7.01-.001-1h-7.699c-2.183 0-3.959-1.908-3.959-4.253V48.243c0-2.346 1.776-4.254 3.959-4.254h30.081c2.184 0 3.96 1.908 3.96 4.254v21.246c0 2.345-1.776 4.254-3.96 4.254H683.173l-.285.256-8.743 7.869c-.094.08-.203.12-.324.12z"/>
            <path fill="#333" d="M665.68 44.989c-.763 0-1.49.325-2.048.916-.587.622-.911 1.453-.911 2.338v21.246c0 .885.324 1.715.911 2.338.558.59 1.285.916 2.048.916h6.7c1.104 0 1.999.894 2 1.997l.007 5.564 7.832-7.048c.367-.33.844-.513 1.338-.513h12.204c.763 0 1.49-.326 2.049-.916.587-.623.911-1.453.911-2.338V48.243c0-.885-.324-1.715-.911-2.338-.558-.59-1.286-.916-2.049-.916H665.68m0-2h30.081c2.728 0 4.96 2.364 4.96 5.254v21.246c0 2.89-2.232 5.254-4.96 5.254h-12.204l-8.75 7.874c-.29.254-.64.372-.986.372-.619 0-1.22-.38-1.432-1.037l-.009-7.21h-6.7c-2.728 0-4.959-2.363-4.959-5.253V48.243c0-2.89 2.231-5.254 4.959-5.254z"/>
        </g>
        <g id="그룹_127">
            <ellipse id="타원_22" cx="2.272" cy="2.248" fill="#adc4f8" rx="2.272" ry="2.248" transform="rotate(-45 405.902 -776.567)"/>
            <path id="패스_86" d="M681.164 57.328a2.264 2.264 0 1 0 1.777 1.778 2.266 2.266 0 0 0-1.777-1.778z" class="cls-3"/>
            <path id="패스_87" d="M690.686 57.328a2.264 2.264 0 1 0 1.777 1.778 2.267 2.267 0 0 0-1.777-1.778z" class="cls-3"/>
        </g>
    </g>
</svg>
