<svg xmlns="http://www.w3.org/2000/svg" width="40" height="39.375" viewBox="0 0 40 39.375">
    <defs>
        <style>
            .cls-6{fill:none}.cls-2{stroke:#333;stroke-linecap:round;stroke-linejoin:round;stroke-width:2px;fill:#fff}.cls-5{stroke:none}
        </style>
    </defs>
    <g id="icon_quick_call" transform="translate(-597.425 -87.702)">
        <path id="패스_82" fill="none" stroke="#333" stroke-linecap="round" stroke-linejoin="round" stroke-width="2px" d="M631.125 114.563s1.154 9.321-8.194 9.874" transform="translate(0 .09)"/>
        <g id="사각형_120" class="cls-2">
            <path d="M6.125 0h.918a2.174 2.174 0 0 1 2.174 2.174v8.858a2.036 2.036 0 0 1-2.036 2.036H6.125A6.125 6.125 0 0 1 0 6.943v-.818A6.125 6.125 0 0 1 6.125 0z" class="cls-5" transform="translate(597.425 102.717)"/>
            <path d="M6.125 1h.918a1.174 1.174 0 0 1 1.174 1.174v8.858a1.036 1.036 0 0 1-1.036 1.036H6.125A5.125 5.125 0 0 1 1 6.943v-.818A5.125 5.125 0 0 1 6.125 1z" class="cls-6" transform="translate(597.425 102.717)"/>
        </g>
        <g id="사각형_121" class="cls-2">
            <path d="M6.125 0h1.056a2.036 2.036 0 0 1 2.036 2.036v8.858a2.174 2.174 0 0 1-2.174 2.174h-.918A6.125 6.125 0 0 1 0 6.943v-.818A6.125 6.125 0 0 1 6.125 0z" class="cls-5" transform="rotate(180 318.712 57.893)"/>
            <path d="M6.125 1h1.056a1.036 1.036 0 0 1 1.036 1.036v8.858a1.174 1.174 0 0 1-1.174 1.174h-.918A5.125 5.125 0 0 1 1 6.943v-.818A5.125 5.125 0 0 1 6.125 1z" class="cls-6" transform="rotate(180 318.712 57.893)"/>
        </g>
        <rect id="사각형_122" width="10.895" height="5.102" fill="#adc4f8" rx="2.225" transform="translate(613.486 121.975)"/>
        <path id="패스_90" fill="none" stroke="#333" stroke-linecap="round" stroke-linejoin="round" stroke-miterlimit="10" stroke-width="2px" d="M603.538 102.808s-.948-14.915 13.873-14.915c14.475 0 13.555 14.915 13.555 14.915" transform="translate(.173 .809)"/>
    </g>
</svg>
