<svg xmlns="http://www.w3.org/2000/svg" width="33.124" height="39.993" viewBox="0 0 33.124 39.993">
    <defs>
        <style>
            .cls-1{fill:#fff;stroke-linecap:round;stroke-linejoin:round;fill-rule:evenodd}.cls-3,.cls-4{stroke:none}.cls-4{fill:#333}
        </style>
    </defs>
    <g id="icon_quick_area" transform="translate(-664.032 -89.594)">
        <g id="패스_88" class="cls-1">
            <path d="M697.19 128.587h-27.867c-.841 0-1.559-.507-1.624-1.126l1.648-7.16.026-.111v-.114c0-.66.746-1.219 1.63-1.219h24.508c.882 0 1.628.558 1.628 1.219v.114l.025.11 1.649 7.161c-.066.62-.782 1.126-1.623 1.126z" class="cls-3" transform="translate(-2.662)"/>
            <path d="M697.19 127.587c.288 0 .49-.107.582-.189l-1.582-6.873c-.032-.14-.05-.283-.051-.427-.048-.079-.273-.241-.628-.241h-24.509c-.356 0-.581.162-.63.241 0 .144-.018.287-.05.427l-1.582 6.873c.092.082.295.189.583.189h27.867m0 2h-27.867c-1.452 0-2.629-.993-2.629-2.218l1.679-7.293c0-1.226 1.178-2.219 2.63-2.219h24.508c1.452 0 2.628.993 2.628 2.219l1.679 7.293c0 1.225-1.177 2.218-2.628 2.218z" class="cls-4" transform="translate(-2.662)"/>
        </g>
        <g id="패스_89" class="cls-1">
            <path d="M680.686 123.828c-.737 0-1.389-.325-1.787-.893-.426-.607-.881-1.238-1.363-1.905-1.882-2.61-4.016-5.567-5.704-8.876-1.93-3.783-2.869-7.25-2.869-10.596 0-6.046 5.275-10.964 11.758-10.964 6.483 0 11.757 4.918 11.757 10.964 0 3.165-.94 6.547-2.876 10.34-1.694 3.322-3.832 6.352-5.72 9.025-.493.7-.959 1.36-1.393 1.993-.393.571-1.067.912-1.803.912z" class="cls-3"/>
            <path d="M680.721 91.594c-5.932 0-10.758 4.47-10.758 9.964 0 3.185.903 6.502 2.76 10.142 1.653 3.24 3.763 6.165 5.624 8.745.484.67.94 1.303 1.37 1.915.297.423.776.468.969.468.195 0 .682-.046.978-.478.438-.638.906-1.301 1.402-2.003 1.867-2.646 3.984-5.646 5.645-8.903 1.862-3.65 2.767-6.883 2.767-9.886 0-5.494-4.826-9.964-10.757-9.964m0-2c7.045 0 12.757 5.357 12.757 11.964 0 8.483-6.436 16.495-10.165 21.924-.616.897-1.622 1.346-2.627 1.346-.994 0-1.988-.439-2.606-1.319-3.736-5.323-10.117-13.031-10.117-21.951 0-6.607 5.712-11.964 12.758-11.964z" class="cls-4"/>
        </g>
        <circle id="타원_23" cx="6.064" cy="6.064" r="6.064" fill="#adc4f8" transform="translate(674.609 97.46)"/>
    </g>
</svg>
